<?xml version="1.0" standalone="no"?>
<!DOCTYPE svg PUBLIC "-//W3C//DTD SVG 20010904//EN"
 "http://www.w3.org/TR/2001/REC-SVG-20010904/DTD/svg10.dtd">
<svg version="1.0" xmlns="http://www.w3.org/2000/svg"
 width="260.000000pt" height="260.000000pt" viewBox="0 0 260.000000 260.000000"
 preserveAspectRatio="xMidYMid meet">
<metadata>
Created by potrace 1.11, written by Peter Selinger 2001-2013
</metadata>
<g transform="translate(0.000000,260.000000) scale(0.100000,-0.100000)"
fill="#000000" stroke="none">
<path d="M1247 2502 l-27 -29 0 -354 1 -354 -23 -7 c-13 -4 -53 -14 -89 -22
-245 -55 -493 -271 -586 -511 -18 -45 -35 -104 -39 -133 -4 -29 -11 -55 -15
-58 -12 -7 -12 -239 0 -262 5 -9 13 -42 19 -73 25 -137 111 -287 235 -411 37
-37 71 -68 76 -68 4 0 16 -9 27 -21 19 -22 69 -51 92 -55 7 -1 31 15 52 35 33
31 40 45 40 75 0 34 -10 48 -108 150 -174 180 -231 302 -232 493 0 123 13 180
66 288 52 106 108 174 202 244 70 51 209 111 260 111 l27 0 -3 -745 -2 -745
118 0 c265 0 440 69 620 244 75 72 162 191 162 220 0 9 4 16 9 16 12 0 58 132
71 204 15 87 12 275 -5 364 -10 51 -35 116 -72 192 -52 104 -67 124 -158 215
-83 83 -117 109 -200 153 -98 52 -194 84 -287 98 l-48 6 0 362 0 363 -23 21
c-18 17 -36 22 -78 22 -48 0 -59 -4 -82 -28z m273 -971 c73 -18 172 -65 212
-101 18 -17 37 -30 42 -30 15 0 86 -72 86 -87 0 -7 8 -17 19 -22 10 -6 26 -27
36 -48 10 -21 31 -65 47 -98 15 -33 26 -65 24 -72 -3 -6 0 -13 7 -16 15 -4 17
-271 3 -302 -5 -11 -10 -24 -11 -30 -1 -10 -6 -23 -47 -115 -44 -99 -193 -250
-278 -282 -14 -5 -48 -20 -75 -33 -28 -13 -63 -26 -78 -29 -15 -3 -38 -8 -52
-11 l-25 -5 0 648 c0 357 3 652 7 655 3 4 11 3 17 -1 6 -5 36 -14 66 -21z"/>
</g>
</svg>
